HIERARCHY
ROOT hip
{
  OFFSET 0 0 0
  CHANNELS 6 Xposition Yposition Zposition Zrotation Yrotation Xrotation
  JOINT abdomen
  {
    OFFSET 0 20.6881 -0.73152
    CHANNELS 3 Zrotation Xrotation Yrotation
    JOINT chest
    {
      OFFSET 0 11.7043 -0.48768
      CHANNELS 3 Zrotation Xrotation Yrotation
      JOINT neck
      {
        OFFSET 0 22.1894 -2.19456
        CHANNELS 3 Zrotation Xrotation Yrotation
        JOINT head
        {
          OFFSET -0.24384 7.07133 1.2192
          CHANNELS 3 Zrotation Xrotation Yrotation
          JOINT leftEye
          {
            OFFSET 4.14528 8.04674 8.04672
            CHANNELS 3 Zrotation Xrotation Yrotation
            End Site
            {
              OFFSET 1 0 0
            }
          }
          JOINT rightEye
          {
            OFFSET -3.6576 8.04674 8.04672
            CHANNELS 3 Zrotation Xrotation Yrotation
            End Site
            {
              OFFSET 1 0 0
            }
          }
        }
      }
      JOINT rCollar
      {
        OFFSET -2.68224 19.2634 -4.8768
        CHANNELS 3 Zrotation Xrotation Yrotation
        JOINT rShldr
        {
          OFFSET -8.77824 -1.95073 1.46304
          CHANNELS 3 Zrotation Xrotation Yrotation
          JOINT rForeArm
          {
            OFFSET -28.1742 -1.7115 0.48768
            CHANNELS 3 Zrotation Xrotation Yrotation
            JOINT rHand
            {
              OFFSET -22.5879 0.773209 7.07136
              CHANNELS 3 Zrotation Xrotation Yrotation
              JOINT rThumb1
              {
                OFFSET -1.2192 -0.487915 3.41376
                CHANNELS 3 Zrotation Xrotation Yrotation
                JOINT rThumb2
                {
                  OFFSET -3.37035 -0.52449 3.41376
                  CHANNELS 3 Zrotation Xrotation Yrotation
                  End Site
                  {
                    OFFSET -1.78271 -1.18214 1.43049
                  }
                }
              }
              JOINT rIndex1
              {
                OFFSET -7.75947 0.938293 5.60832
                CHANNELS 3 Zrotation Xrotation Yrotation
                JOINT rIndex2
                {
                  OFFSET -2.54057 -0.884171 1.56538
                  CHANNELS 3 Zrotation Xrotation Yrotation
                  End Site
                  {
                    OFFSET -1.62519 -0.234802 1.16502
                  }
                }
              }
              JOINT rMid1
              {
                OFFSET -8.24714 1.18213 3.41376
                CHANNELS 3 Zrotation Xrotation Yrotation
                JOINT rMid2
                {
                  OFFSET -3.10165 -0.590103 1.0647
                  CHANNELS 3 Zrotation Xrotation Yrotation
                  End Site
                  {
                    OFFSET -2.48547 -0.328903 0.83742
                  }
                }
              }
              JOINT rRing1
              {
                OFFSET -8.82822 0.546677 1.51678
                CHANNELS 3 Zrotation Xrotation Yrotation
                JOINT rRing2
                {
                  OFFSET -2.60934 -0.819778 -0.0198488
                  CHANNELS 3 Zrotation Xrotation Yrotation
                  End Site
                  {
                    OFFSET -2.33842 -0.294052 0.168128
                  }
                }
              }
              JOINT rPinky1
              {
                OFFSET -8.27202 -0.0477905 -0.4584
                CHANNELS 3 Zrotation Xrotation Yrotation
                JOINT rPinky2
                {
                  OFFSET -1.82734 -0.647385 -0.700984
                  CHANNELS 3 Zrotation Xrotation Yrotation
                  End Site
                  {
                    OFFSET -1.69225 -0.51767 -0.607171
                  }
                }
              }
            }
          }
        }
      }
      JOINT lCollar
      {
        OFFSET 2.68224 19.2634 -4.8768
        CHANNELS 3 Zrotation Xrotation Yrotation
        JOINT lShldr
        {
          OFFSET 8.77824 -1.95073 1.46304
          CHANNELS 3 Zrotation Xrotation Yrotation
          JOINT lForeArm
          {
            OFFSET 28.1742 -1.7115 0.48768
            CHANNELS 3 Zrotation Xrotation Yrotation
            JOINT lHand
            {
              OFFSET 22.5879 0.773209 7.07136
              CHANNELS 3 Zrotation Xrotation Yrotation
              JOINT lThumb1
              {
                OFFSET 1.2192 -0.487915 3.41376
                CHANNELS 3 Zrotation Xrotation Yrotation
                JOINT lThumb2
                {
                  OFFSET 3.37035 -0.52449 3.41376
                  CHANNELS 3 Zrotation Xrotation Yrotation
                  End Site
                  {
                    OFFSET 1.78271 -1.18214 1.43049
                  }
                }
              }
              JOINT lIndex1
              {
                OFFSET 7.75947 0.938293 5.60832
                CHANNELS 3 Zrotation Xrotation Yrotation
                JOINT lIndex2
                {
                  OFFSET 2.54057 -0.884171 1.56538
                  CHANNELS 3 Zrotation Xrotation Yrotation
                  End Site
                  {
                    OFFSET 1.62519 -0.234802 1.16502
                  }
                }
              }
              JOINT lMid1
              {
                OFFSET 8.24714 1.18213 3.41376
                CHANNELS 3 Zrotation Xrotation Yrotation
                JOINT lMid2
                {
                  OFFSET 3.10165 -0.590103 1.0647
                  CHANNELS 3 Zrotation Xrotation Yrotation
                  End Site
                  {
                    OFFSET 2.48547 -0.328903 0.83742
                  }
                }
              }
              JOINT lRing1
              {
                OFFSET 8.82822 0.546677 1.51678
                CHANNELS 3 Zrotation Xrotation Yrotation
                JOINT lRing2
                {
                  OFFSET 2.60934 -0.819778 -0.0198488
                  CHANNELS 3 Zrotation Xrotation Yrotation
                  End Site
                  {
                    OFFSET 2.33842 -0.294052 0.168128
                  }
                }
              }
              JOINT lPinky1
              {
                OFFSET 8.27202 -0.0477905 -0.4584
                CHANNELS 3 Zrotation Xrotation Yrotation
                JOINT lPinky2
                {
                  OFFSET 1.82734 -0.647385 -0.700984
                  CHANNELS 3 Zrotation Xrotation Yrotation
                  End Site
                  {
                    OFFSET 1.69225 -0.51767 -0.607171
                  }
                }
              }
            }
          }
        }
      }
    }
  }
  JOINT rButtock
  {
    OFFSET -8.77824 4.35084 1.2192
    CHANNELS 3 Zrotation Xrotation Yrotation
    JOINT rThigh
    {
      OFFSET 0 -1.70687 -2.19456
      CHANNELS 3 Zrotation Xrotation Yrotation
      JOINT rShin
      {
        OFFSET 0 -36.8199 0.73152
        CHANNELS 3 Zrotation Xrotation Yrotation
        JOINT rFoot
        {
          OFFSET 0.73152 -45.1104 -5.12064
          CHANNELS 3 Zrotation Xrotation Yrotation
          End Site
          {
            OFFSET -1.1221 -3.69964 12.103
          }
        }
      }
    }
  }
  JOINT lButtock
  {
    OFFSET 8.77824 4.35084 1.2192
    CHANNELS 3 Zrotation Xrotation Yrotation
    JOINT lThigh
    {
      OFFSET 0 -1.70687 -2.19456
      CHANNELS 3 Zrotation Xrotation Yrotation
      JOINT lShin
      {
        OFFSET 0 -36.8199 0.73152
        CHANNELS 3 Zrotation Xrotation Yrotation
        JOINT lFoot
        {
          OFFSET -0.73152 -45.1104 -5.12064
          CHANNELS 3 Zrotation Xrotation Yrotation
          End Site
          {
            OFFSET 1.1221 -3.69964 12.103
          }
        }
      }
    }
  }
}
MOTION
Frames:	6
Frame Time:	0.00833333
-58.0299 83.6835 5.74896 -472.362 -88.5773 477.474 1.19241 -1.29114 -3.1501 -0.619603 -0.208574 -1.04489 -12.6431 5.35751 -11.3313 13.0652 -15.2019 -18.3874 -0.0 0.0 0.0 -0.0 0.0 0.0 4.19458e-14 -1.51811e-13 -9.55316e-14 76.4323 0.498831 -5.64268 -8.61183 -3.33936 15.223 -0.903171 25.9391 3.91989 1.59417e-09 2.46559e-09 -3.41197e-09 2.69006e-09 4.26156e-09 -5.9216e-09 1.59417e-09 2.46559e-09 -3.41198e-09 7.73091 5.47488 0.417314 1.59416e-09 2.46559e-09 -3.41197e-09 2.90554 0.965183 0.102902 1.59417e-09 2.46559e-09 -3.41197e-09 10.2786 0.731801 0.0259123 1.59416e-09 2.46559e-09 -3.41196e-09 2.22167 -0.733487 -0.20892 4.18509e-14 -1.51811e-13 -9.57645e-14 -78.1057 -15.0774 7.44574 7.81504 -2.91536 -13.7631 2.35368 39.25 -6.59379 -2.92417e-09 2.36508e-09 2.21661e-09 -4.98068e-09 4.10013e-09 3.90805e-09 -2.92417e-09 2.36508e-09 2.21662e-09 -7.73091 5.47488 -0.417314 -2.92417e-09 2.36508e-09 2.21661e-09 -2.90554 0.965183 -0.102902 -2.92418e-09 2.36508e-09 2.21662e-09 -10.2786 0.731801 -0.0259123 -2.92417e-09 2.36508e-09 2.21661e-09 -2.22167 -0.733487 0.20892 -2.03217e-16 0.0 -3.88251e-19 -4.16623 -25.6833 -1.94666 -0.910797 56.0556 1.04487 0.00834936 8.0071 -14.4414 2.03217e-16 0.0 3.88251e-19 -1.21022 -20.5673 -4.46632 0.0215811 21.036 -0.0462316 0.283853 -2.48931 -0.511203
-58.7894 83.709 5.86773 -475.665 -88.6972 480.695 1.03405 -1.22557 -3.40711 -0.53129 -0.240823 -1.11455 -12.588 5.2906 -11.2406 12.9804 -15.0634 -18.2311 -0.0 0.0 0.0 -0.0 0.0 0.0 7.17842e-14 -7.43365e-13 -3.50882e-14 76.3209 0.860046 -5.30626 -8.70505 -3.39059 15.3948 -0.868212 25.4728 3.83905 3.14297e-09 4.48149e-09 -6.26287e-09 5.3087e-09 7.74828e-09 -1.08753e-08 3.14298e-09 4.48149e-09 -6.26287e-09 7.73091 5.47488 0.417314 3.14297e-09 4.48149e-09 -6.26288e-09 2.90554 0.965183 0.102902 3.14297e-09 4.48149e-09 -6.26287e-09 10.2786 0.731801 0.0259123 3.14296e-09 4.48149e-09 -6.26287e-09 2.22167 -0.733487 -0.20892 7.16864e-14 -7.43365e-13 -3.53052e-14 -78.3534 -13.8199 6.30819 7.86525 -2.94137 -13.8548 2.295 38.8519 -6.50052 -5.37628e-09 4.59068e-09 4.4399e-09 -9.1411e-09 7.95972e-09 7.81577e-09 -5.37629e-09 4.59067e-09 4.43991e-09 -7.73091 5.47488 -0.417314 -5.37628e-09 4.59067e-09 4.43991e-09 -2.90554 0.965183 -0.102902 -5.37629e-09 4.59067e-09 4.43991e-09 -10.2786 0.731801 -0.0259123 -5.37629e-09 4.59067e-09 4.43991e-09 -2.22167 -0.733487 0.20892 -2.03217e-16 0.0 -3.88251e-19 -4.51978 -26.5883 -2.21966 -0.920958 56.2715 1.05998 -0.0169491 7.92273 -14.947 2.03217e-16 0.0 3.88251e-19 -1.4873 -19.9171 -4.46156 0.0178461 20.9997 -0.070726 0.295064 -2.93887 -0.473106
-59.5454 83.7303 5.9802 -479.375 -88.8058 484.331 0.884718 -1.16769 -3.66449 -0.438072 -0.272259 -1.18382 -12.5334 5.22287 -11.1513 12.8984 -14.9254 -18.0769 -0.0 0.0 0.0 -0.0 0.0 0.0 7.57881e-14 -1.0138e-12 1.28216e-14 76.2214 1.26826 -4.94549 -8.80956 -3.4487 15.5873 -0.831007 24.968 3.75211 3.36527e-09 4.68347e-09 -6.5947e-09 5.68359e-09 8.0977e-09 -1.14536e-08 3.36527e-09 4.68348e-09 -6.5947e-09 7.73091 5.47488 0.417314 3.36526e-09 4.68348e-09 -6.5947e-09 2.90554 0.965183 0.102902 3.36527e-09 4.68347e-09 -6.5947e-09 10.2786 0.731801 0.0259123 3.36526e-09 4.68348e-09 -6.59469e-09 2.22167 -0.733487 -0.20892 7.56908e-14 -1.0138e-12 1.26228e-14 -78.5502 -12.4965 5.17241 7.92913 -2.97472 -13.9712 2.22722 38.3862 -6.39236 -5.7316e-09 4.95502e-09 4.79494e-09 -9.73979e-09 8.59484e-09 8.44028e-09 -5.7316e-09 4.95502e-09 4.79495e-09 -7.73091 5.47488 -0.417314 -5.7316e-09 4.95502e-09 4.79496e-09 -2.90554 0.965183 -0.102902 -5.7316e-09 4.95502e-09 4.79495e-09 -10.2786 0.731801 -0.0259123 -5.7316e-09 4.95502e-09 4.79495e-09 -2.22167 -0.733487 0.20892 -2.03217e-16 0.0 -3.88251e-19 -4.85497 -27.4474 -2.4871 -0.92287 56.3288 1.06834 -0.0581658 7.78 -15.4477 2.03217e-16 0.0 3.88251e-19 -1.74667 -19.2718 -4.45597 0.0142584 20.951 -0.0959713 0.307114 -3.38309 -0.433279
-60.2977 83.7463 6.08563 -483.548 -88.9045 488.437 0.743192 -1.11714 -3.92267 -0.339336 -0.303237 -1.25278 -12.4791 5.15407 -11.0631 12.8188 -14.7879 -17.9243 -0.0 0.0 0.0 -0.0 0.0 0.0 3.55019e-14 -7.75624e-13 4.66115e-14 76.1319 1.72687 -4.55718 -8.92545 -3.51359 15.8012 -0.791645 24.4189 3.65832 1.30751e-09 1.75536e-09 -2.5736e-09 2.20176e-09 3.03349e-09 -4.47166e-09 1.30751e-09 1.75537e-09 -2.57361e-09 7.73091 5.47488 0.417314 1.30751e-09 1.75536e-09 -2.57361e-09 2.90554 0.965183 0.102902 1.30751e-09 1.75536e-09 -2.57361e-09 10.2786 0.731801 0.0259123 1.3075e-09 1.75537e-09 -2.5736e-09 2.22167 -0.733487 -0.20892 3.5413e-14 -7.75624e-13 4.64411e-14 -78.6928 -11.0994 4.03401 8.00569 -3.01469 -14.111 2.15087 37.8469 -6.26895 -2.46934e-09 2.11687e-09 1.93249e-09 -4.19267e-09 3.6828e-09 3.41072e-09 -2.46935e-09 2.11687e-09 1.9325e-09 -7.73091 5.47488 -0.417314 -2.46934e-09 2.11687e-09 1.9325e-09 -2.90554 0.965183 -0.102902 -2.46934e-09 2.11687e-09 1.9325e-09 -10.2786 0.731801 -0.0259123 -2.46934e-09 2.11687e-09 1.9325e-09 -2.22167 -0.733487 0.20892 -2.03217e-16 0.0 -3.88251e-19 -5.1712 -28.2617 -2.75034 -0.915909 56.2244 1.06947 -0.118617 7.57415 -15.9512 2.03217e-16 0.0 3.88251e-19 -1.98944 -18.6313 -4.45031 0.0107609 20.8902 -0.122243 0.320359 -3.82388 -0.389339
-61.0451 83.761 6.18508 -488.163 -88.9928 492.995 0.610892 -1.07289 -4.18218 -0.235519 -0.334005 -1.32164 -12.4249 5.08387 -10.9757 12.7414 -14.6508 -17.7728 -0.0 0.0 0.0 -0.0 0.0 0.0 -3.52332e-14 -1.94297e-13 7.88833e-14 76.0495 2.23162 -4.13889 -9.05201 -3.58483 16.0355 -0.750789 23.8261 3.55813 -2.21439e-09 -3.21666e-09 4.28539e-09 -3.75629e-09 -5.56551e-09 7.43856e-09 -2.21439e-09 -3.21666e-09 4.28539e-09 7.73091 5.47488 0.417314 -2.2144e-09 -3.21667e-09 4.28539e-09 2.90554 0.965183 0.102902 -2.21439e-09 -3.21666e-09 4.28539e-09 10.2786 0.731801 0.0259123 -2.2144e-09 -3.21666e-09 4.28539e-09 2.22167 -0.733487 -0.20892 -3.53066e-14 -1.94299e-13 7.87498e-14 -78.7768 -9.62965 2.88961 8.09371 -3.06071 -14.2722 2.06781 37.2383 -6.13227 3.15028e-09 -2.78617e-09 -2.99595e-09 5.36071e-09 -4.80558e-09 -5.25017e-09 3.15027e-09 -2.78617e-09 -2.99592e-09 -7.73091 5.47488 -0.417314 3.15028e-09 -2.78617e-09 -2.99594e-09 -2.90554 0.965183 -0.102902 3.15028e-09 -2.78617e-09 -2.99594e-09 -10.2786 0.731801 -0.0259123 3.15029e-09 -2.78617e-09 -2.99594e-09 -2.22167 -0.733487 0.20892 -2.03217e-16 0.0 -3.88251e-19 -5.46706 -29.0364 -3.0102 -0.900602 55.9658 1.06374 -0.20074 7.304 -16.4619 2.03217e-16 0.0 3.88251e-19 -2.21414 -17.9943 -4.44423 0.00723551 20.8166 -0.149577 0.335045 -4.26378 -0.340556
-61.789 83.7745 6.2774 -493.198 -89.0706 497.983 0.489095 -1.0365 -4.44164 -0.127658 -0.363575 -1.39005 -12.3713 5.01303 -10.8899 12.6669 -14.5147 -17.6238 -0.0 0.0 0.0 -0.0 0.0 0.0 -1.05273e-13 4.32407e-13 1.03755e-13 75.9742 2.77826 -3.69952 -9.18897 -3.66272 16.2895 -0.709286 23.2022 3.45373 -5.66691e-09 -8.08582e-09 1.09924e-08 -9.59674e-09 -1.39866e-08 1.90853e-08 -5.66691e-09 -8.08581e-09 1.09924e-08 7.73091 5.47488 0.417314 -5.66692e-09 -8.08582e-09 1.09924e-08 2.90554 0.965183 0.102902 -5.6669e-09 -8.08581e-09 1.09924e-08 10.2786 0.731801 0.0259123 -5.66692e-09 -8.08581e-09 1.09924e-08 2.22167 -0.733487 -0.20892 -1.05333e-13 4.32405e-13 1.03651e-13 -78.7976 -8.10834 1.74854 8.19594 -3.11469 -14.4594 1.97946 36.5701 -5.98479 8.65071e-09 -7.58949e-09 -7.81819e-09 1.47108e-08 -1.31223e-08 -1.3725e-08 8.65069e-09 -7.58949e-09 -7.81816e-09 -7.73091 5.47488 -0.417314 8.65071e-09 -7.58949e-09 -7.81819e-09 -2.90554 0.965183 -0.102902 8.6507e-09 -7.58949e-09 -7.81819e-09 -10.2786 0.731801 -0.0259123 8.65072e-09 -7.58949e-09 -7.81819e-09 -2.22167 -0.733487 0.20892 -2.03217e-16 0.0 -3.88251e-19 -5.74105 -29.7653 -3.26151 -0.877865 55.5545 1.0519 -0.301311 6.98306 -16.9594 2.03217e-16 0.0 3.88251e-19 -2.4195 -17.362 -4.43628 0.00381716 20.7304 -0.177296 0.350335 -4.69661 -0.292795
